<svg xmlns="http://www.w3.org/2000/svg" width="16" height="16" viewBox="0 0 16 16"><g><g opacity=".9"><path fill="#fff" d="M8 13.5c-.111 0-.217-.015-.327-.019l-3.896 2.435-.005-.008a.487.487 0 0 1-.116.06A.427.427 0 0 1 3.5 16a.498.498 0 0 1-.5-.5v-3.486C1.173 10.777 0 8.88 0 6.75 0 3.022 3.582 0 8 0s8 3.022 8 6.75-3.582 6.75-8 6.75zM8 1C4.134 1 1 3.574 1 6.75c0 1.703.907 3.23 2.34 4.282l.014-.003c.147.15.356.317.646.493v3.076l2.087-1.304-.016-.005 1.337-.827c.197.013.39.038.592.038 3.866 0 7-2.575 7-5.75C15 3.574 11.866 1 8 1zm3.5 5h-7a.5.5 0 0 1 0-1h7a.5.5 0 0 1 0 1zm-7 2h7a.5.5 0 1 1 0 1h-7a.5.5 0 0 1 0-1z"/></g></g></svg>