<svg xmlns="http://www.w3.org/2000/svg" width="16" height="14" viewBox="0 0 16 14"><g><g opacity=".8"><path fill="#fff" d="M14.828 7.08l.026.027-6.5 6.74a.49.49 0 0 1-.708 0l-6.5-6.74.026-.026A4.212 4.212 0 0 1 0 4.148h.013C.143 1.835 1.987 0 4.25 0 5.874 0 7.285.945 8 2.334 8.715.945 10.126 0 11.75 0c2.263 0 4.107 1.835 4.237 4.148H16a4.212 4.212 0 0 1-1.172 2.933zM11.75 1.038c-1.71 0-3.11 1.371-3.237 3.11H8.5a.51.51 0 0 1-.5.52.51.51 0 0 1-.5-.52h-.013C7.36 2.409 5.96 1.038 4.25 1.038c-1.71 0-3.11 1.371-3.238 3.11H1c0 .708.228 1.36.611 1.883.548.747 2.183 2.258 2.08 2.25L8 12.748l4.308-4.468c-.102.008 1.292-1.38 1.836-1.957A3.16 3.16 0 0 0 15 4.148h-.013c-.128-1.74-1.527-3.111-3.237-3.111z"/></g></g></svg>