<svg xmlns="http://www.w3.org/2000/svg" width="15" height="15" viewBox="0 0 15 15"><g><g><path fill="#888" d="M14.531 14.062a.469.469 0 0 1-.469-.469v-2.465A7.496 7.496 0 0 1 7.5 15C3.781 15 .708 12.289.117 8.738a.461.461 0 0 1 .352-.77c.259 0 .468.21.468.47h.075c.456 3.178 3.183 5.624 6.488 5.624a6.557 6.557 0 0 0 5.922-3.75h-2.64a.469.469 0 0 1 0-.937h3.75s.468-.03.468.469v3.75c0 .258-.21.468-.469.468zm0-7.031a.469.469 0 0 1-.469-.469h-.074C13.532 3.383 10.805.937 7.5.937a6.558 6.558 0 0 0-5.925 3.75h2.644a.469.469 0 0 1 0 .938H.469s-.47-.015-.47-.469v-3.75a.469.469 0 1 1 .938 0v2.466A7.496 7.496 0 0 1 7.5 0c3.719 0 6.792 2.71 7.383 6.262a.462.462 0 0 1-.352.769z"/></g></g></svg>